<svg width="260" height="62" viewBox="0 0 260 62" fill="none" xmlns="http://www.w3.org/2000/svg">
<path d="M23.6085 7.79419L27.2254 4.13336L54.4505 31.6889L27.2254 59.2445L23.6084 55.5836L47.2167 31.6889L23.6085 7.79419Z" fill="#FF1F57"/>
<path d="M18.8867 12.5732L22.5036 8.91235L45.0071 31.689L22.5036 54.4656L18.8867 50.8048L37.7732 31.689L18.8867 12.5732Z" fill="#FF1F57"/>
<path d="M0 31.6888L17.7818 13.6912L35.5636 31.6888L17.7818 49.6865L14.165 46.0257L28.3298 31.6888L17.7818 21.0128L3.61693 35.3496L0 31.6888Z" fill="#FF1F57"/>
<path d="M17.7819 23.2491L14.165 26.9099L18.8867 31.6889L9.44336 41.2468L13.0603 44.9075L26.1206 31.6889L17.7819 23.2491Z" fill="#FF1F57"/>
<path d="M8.33836 40.1287L4.72144 36.4679L13.0222 28.0665L16.6391 31.7273L8.33836 40.1287Z" fill="#FF1F57"/>
<path d="M256.081 16.74V45.4667H251.426V16.74H256.081Z" fill="#FF1F57"/>
<path d="M240.062 39.5973H228.178L226.136 45.4666H221.277L231.445 16.6986H236.836L247.004 45.4666H242.104L240.062 39.5973ZM238.755 35.7533L234.14 22.4026L229.485 35.7533H238.755Z" fill="#FF1F57"/>
<path d="M216.839 14.8801V45.4668H212.183V14.8801H216.839Z" fill="#FF1F57"/>
<path d="M195.901 45.8386C193.778 45.8386 191.858 45.3564 190.143 44.3919C188.428 43.3999 187.08 42.0222 186.1 40.2586C185.12 38.4675 184.63 36.4008 184.63 34.0586C184.63 31.7439 185.134 29.6911 186.141 27.8999C187.148 26.1088 188.523 24.7311 190.266 23.7666C192.008 22.8022 193.955 22.3199 196.106 22.3199C198.256 22.3199 200.203 22.8022 201.945 23.7666C203.688 24.7311 205.063 26.1088 206.07 27.8999C207.077 29.6911 207.581 31.7439 207.581 34.0586C207.581 36.3733 207.064 38.4262 206.029 40.2173C204.995 42.0084 203.579 43.3999 201.782 44.3919C200.012 45.3564 198.052 45.8386 195.901 45.8386ZM195.901 41.7466C197.099 41.7466 198.215 41.4573 199.25 40.8786C200.312 40.2999 201.169 39.4319 201.823 38.2746C202.476 37.1173 202.803 35.7119 202.803 34.0586C202.803 32.4053 202.49 31.0137 201.864 29.8839C201.237 28.7266 200.407 27.8586 199.373 27.2799C198.338 26.7013 197.222 26.4119 196.024 26.4119C194.826 26.4119 193.71 26.7013 192.675 27.2799C191.668 27.8586 190.865 28.7266 190.266 29.8839C189.667 31.0137 189.367 32.4053 189.367 34.0586C189.367 36.5111 189.98 38.4124 191.205 39.7626C192.457 41.0853 194.023 41.7466 195.901 41.7466Z" fill="#FF1F57"/>
<path d="M175.124 25.9986C175.804 24.8413 176.703 23.9457 177.819 23.3119C178.963 22.6506 180.31 22.3199 181.862 22.3199V27.1973H180.678C178.854 27.1973 177.465 27.6657 176.512 28.6026C175.587 29.5395 175.124 31.1653 175.124 33.4799V45.4666H170.468V22.6919H175.124V25.9986Z" fill="#FF1F57"/>
<path d="M160.705 26.536V39.1426C160.705 39.9969 160.896 40.6169 161.277 41.0026C161.685 41.3609 162.366 41.54 163.319 41.54H166.178V45.4666H162.502C160.406 45.4666 158.8 44.9706 157.683 43.9786C156.567 42.9866 156.009 41.3746 156.009 39.1426V26.536H153.354V22.692H156.009V17.0293H160.705V22.692H166.178V26.536H160.705Z" fill="#FF1F57"/>
<path d="M140.106 22.3199C141.876 22.3199 143.455 22.6919 144.843 23.4359C146.259 24.1799 147.362 25.2822 148.151 26.7426C148.941 28.2031 149.335 29.9666 149.335 32.0333V45.4666H144.721V32.7359C144.721 30.6968 144.217 29.1399 143.21 28.0653C142.202 26.9631 140.828 26.4119 139.085 26.4119C137.343 26.4119 135.954 26.9631 134.92 28.0653C133.912 29.1399 133.409 30.6968 133.409 32.7359V45.4666H128.753V22.6919H133.409V25.2959C134.171 24.3591 135.137 23.6288 136.308 23.1053C137.506 22.5817 138.772 22.3199 140.106 22.3199Z" fill="#FF1F57"/>
<path d="M112.471 45.8386C110.348 45.8386 108.428 45.3564 106.713 44.3919C104.998 43.3999 103.65 42.0222 102.67 40.2586C101.69 38.4675 101.2 36.4008 101.2 34.0586C101.2 31.7439 101.704 29.6911 102.711 27.8999C103.718 26.1088 105.093 24.7311 106.836 23.7666C108.578 22.8022 110.525 22.3199 112.675 22.3199C114.826 22.3199 116.773 22.8022 118.515 23.7666C120.258 24.7311 121.632 26.1088 122.64 27.8999C123.647 29.6911 124.151 31.7439 124.151 34.0586C124.151 36.3733 123.633 38.4262 122.599 40.2173C121.564 42.0084 120.149 43.3999 118.352 44.3919C116.582 45.3564 114.622 45.8386 112.471 45.8386ZM112.471 41.7466C113.669 41.7466 114.785 41.4573 115.82 40.8786C116.882 40.2999 117.739 39.4319 118.393 38.2746C119.046 37.1173 119.373 35.7119 119.373 34.0586C119.373 32.4053 119.06 31.0137 118.433 29.8839C117.807 28.7266 116.977 27.8586 115.942 27.2799C114.908 26.7013 113.792 26.4119 112.594 26.4119C111.396 26.4119 110.28 26.7013 109.245 27.2799C108.238 27.8586 107.435 28.7266 106.836 29.8839C106.237 31.0137 105.937 32.4053 105.937 34.0586C105.937 36.5111 106.55 38.4124 107.775 39.7626C109.027 41.0853 110.593 41.7466 112.471 41.7466Z" fill="#FF1F57"/>
<path d="M69.574 31.0414C69.574 28.2307 70.2138 25.7094 71.4933 23.4774C72.8002 21.2454 74.5562 19.5094 76.7614 18.2694C78.9939 17.0018 81.4305 16.368 84.0714 16.368C87.0933 16.368 89.775 17.1258 92.1164 18.6414C94.485 20.1294 96.2002 22.2512 97.2619 25.0067H91.6672C90.9321 23.4912 89.9111 22.3614 88.6043 21.6174C87.2975 20.8734 85.7865 20.5014 84.0714 20.5014C82.1928 20.5014 80.5185 20.9285 79.0483 21.7827C77.5782 22.6369 76.4211 23.8632 75.5771 25.4614C74.7604 27.0596 74.352 28.9196 74.352 31.0414C74.352 33.1632 74.7604 35.0232 75.5771 36.6214C76.4211 38.2196 77.5782 39.4596 79.0483 40.3414C80.5185 41.1956 82.1928 41.6227 84.0714 41.6227C85.7865 41.6227 87.2975 41.2507 88.6043 40.5067C89.9111 39.7627 90.9321 38.6329 91.6672 37.1174H97.2619C96.2002 39.8729 94.485 41.9947 92.1164 43.4827C89.775 44.9707 87.0933 45.7147 84.0714 45.7147C81.4033 45.7147 78.9666 45.0947 76.7614 43.8547C74.5562 42.5872 72.8002 40.8374 71.4933 38.6054C70.2138 36.3734 69.574 33.852 69.574 31.0414Z" fill="#FF1F57"/>
</svg>
