<svg width="191" height="45" viewBox="0 0 191 45" fill="none" xmlns="http://www.w3.org/2000/svg">
<path d="M17.343 5.65705L20 3L40 23L20 43L17.3429 40.3429L34.6859 23L17.343 5.65705Z" fill="#F24D0D"/>
<path d="M13.8744 9.12565L16.5314 6.4686L33.0628 23L16.5314 39.5314L13.8744 36.8744L27.7487 23L13.8744 9.12565Z" fill="#F24D0D"/>
<path d="M0 23L13.0628 9.93718L26.1256 23L13.0628 36.0628L10.4058 33.4058L20.8115 23L13.0628 15.2513L2.65705 25.657L0 23Z" fill="#F24D0D"/>
<path d="M13.0628 16.8744L10.4058 19.5314L13.8744 23L6.93718 29.9372L9.59422 32.5942L19.1885 23L13.0628 16.8744Z" fill="#F24D0D"/>
<path d="M6.12564 29.1256L3.46859 26.4686L9.56643 20.3708L12.2235 23.0278L6.12564 29.1256Z" fill="#F24D0D"/>
<path d="M188.121 12.15V33H184.701V12.15H188.121Z" fill="#F24D0D"/>
<path d="M176.353 28.74H167.623L166.123 33H162.553L170.023 12.12H173.983L181.453 33H177.853L176.353 28.74ZM175.393 25.95L172.003 16.26L168.583 25.95H175.393Z" fill="#F24D0D"/>
<path d="M159.293 10.8V33H155.873V10.8H159.293Z" fill="#F24D0D"/>
<path d="M143.912 33.27C142.352 33.27 140.942 32.92 139.682 32.22C138.422 31.5 137.432 30.5 136.712 29.22C135.992 27.92 135.632 26.42 135.632 24.72C135.632 23.04 136.002 21.55 136.742 20.25C137.482 18.95 138.492 17.95 139.772 17.25C141.052 16.55 142.482 16.2 144.062 16.2C145.642 16.2 147.072 16.55 148.352 17.25C149.632 17.95 150.642 18.95 151.382 20.25C152.122 21.55 152.492 23.04 152.492 24.72C152.492 26.4 152.112 27.89 151.352 29.19C150.592 30.49 149.552 31.5 148.232 32.22C146.932 32.92 145.492 33.27 143.912 33.27ZM143.912 30.3C144.792 30.3 145.612 30.09 146.372 29.67C147.152 29.25 147.782 28.62 148.262 27.78C148.742 26.94 148.982 25.92 148.982 24.72C148.982 23.52 148.752 22.51 148.292 21.69C147.832 20.85 147.222 20.22 146.462 19.8C145.702 19.38 144.882 19.17 144.002 19.17C143.122 19.17 142.302 19.38 141.542 19.8C140.802 20.22 140.212 20.85 139.772 21.69C139.332 22.51 139.112 23.52 139.112 24.72C139.112 26.5 139.562 27.88 140.462 28.86C141.382 29.82 142.532 30.3 143.912 30.3Z" fill="#F24D0D"/>
<path d="M128.649 18.87C129.149 18.03 129.809 17.38 130.629 16.92C131.469 16.44 132.459 16.2 133.599 16.2V19.74H132.729C131.389 19.74 130.369 20.08 129.669 20.76C128.989 21.44 128.649 22.62 128.649 24.3V33H125.229V16.47H128.649V18.87Z" fill="#F24D0D"/>
<path d="M118.056 19.26V28.41C118.056 29.03 118.196 29.48 118.476 29.76C118.776 30.02 119.276 30.15 119.976 30.15H122.076V33H119.376C117.836 33 116.656 32.64 115.836 31.92C115.016 31.2 114.606 30.03 114.606 28.41V19.26H112.656V16.47H114.606V12.36H118.056V16.47H122.076V19.26H118.056Z" fill="#F24D0D"/>
<path d="M102.924 16.2C104.224 16.2 105.384 16.47 106.404 17.01C107.444 17.55 108.254 18.35 108.834 19.41C109.414 20.47 109.704 21.75 109.704 23.25V33H106.314V23.76C106.314 22.28 105.944 21.15 105.204 20.37C104.464 19.57 103.454 19.17 102.174 19.17C100.894 19.17 99.874 19.57 99.114 20.37C98.374 21.15 98.004 22.28 98.004 23.76V33H94.584V16.47H98.004V18.36C98.564 17.68 99.274 17.15 100.134 16.77C101.014 16.39 101.944 16.2 102.924 16.2Z" fill="#F24D0D"/>
<path d="M82.6231 33.27C81.0631 33.27 79.6531 32.92 78.3931 32.22C77.1331 31.5 76.1431 30.5 75.4231 29.22C74.7031 27.92 74.3431 26.42 74.3431 24.72C74.3431 23.04 74.7131 21.55 75.4531 20.25C76.1931 18.95 77.2031 17.95 78.4831 17.25C79.7631 16.55 81.1931 16.2 82.7731 16.2C84.3531 16.2 85.7831 16.55 87.0631 17.25C88.3431 17.95 89.3531 18.95 90.0931 20.25C90.8331 21.55 91.2031 23.04 91.2031 24.72C91.2031 26.4 90.8231 27.89 90.0631 29.19C89.3031 30.49 88.2631 31.5 86.9431 32.22C85.6431 32.92 84.2031 33.27 82.6231 33.27ZM82.6231 30.3C83.5031 30.3 84.3231 30.09 85.0831 29.67C85.8631 29.25 86.4931 28.62 86.9731 27.78C87.4531 26.94 87.6931 25.92 87.6931 24.72C87.6931 23.52 87.4631 22.51 87.0031 21.69C86.5431 20.85 85.9331 20.22 85.1731 19.8C84.4131 19.38 83.5931 19.17 82.7131 19.17C81.8331 19.17 81.0131 19.38 80.2531 19.8C79.5131 20.22 78.9231 20.85 78.4831 21.69C78.0431 22.51 77.8231 23.52 77.8231 24.72C77.8231 26.5 78.2731 27.88 79.1731 28.86C80.0931 29.82 81.2431 30.3 82.6231 30.3Z" fill="#F24D0D"/>
<path d="M51.11 22.53C51.11 20.49 51.58 18.66 52.52 17.04C53.48 15.42 54.77 14.16 56.39 13.26C58.03 12.34 59.82 11.88 61.76 11.88C63.98 11.88 65.95 12.43 67.67 13.53C69.41 14.61 70.67 16.15 71.45 18.15H67.34C66.8 17.05 66.05 16.23 65.09 15.69C64.13 15.15 63.02 14.88 61.76 14.88C60.38 14.88 59.15 15.19 58.07 15.81C56.99 16.43 56.14 17.32 55.52 18.48C54.92 19.64 54.62 20.99 54.62 22.53C54.62 24.07 54.92 25.42 55.52 26.58C56.14 27.74 56.99 28.64 58.07 29.28C59.15 29.9 60.38 30.21 61.76 30.21C63.02 30.21 64.13 29.94 65.09 29.4C66.05 28.86 66.8 28.04 67.34 26.94H71.45C70.67 28.94 69.41 30.48 67.67 31.56C65.95 32.64 63.98 33.18 61.76 33.18C59.8 33.18 58.01 32.73 56.39 31.83C54.77 30.91 53.48 29.64 52.52 28.02C51.58 26.4 51.11 24.57 51.11 22.53Z" fill="#F24D0D"/>
</svg>
